<svg xmlns="http://www.w3.org/2000/svg" width="256" height="256">
  <path d="m37.696-.14 2.4-.01q3.993-.01 7.986-.011l5.716-.015Q61.575-.195 69.351-.2l9.72-.012q15.21-.02 30.418-.027 17.549-.007 35.097-.05 13.566-.034 27.134-.034 8.1 0 16.201-.025 7.627-.023 15.255-.01 2.792.002 5.584-.013c15.384-.077 25.771 1.183 37.217 12.289 7.384 7.872 10.176 16.224 10.163 26.86l.01 2.39q.01 3.968.011 7.936l.015 5.687q.019 7.73.024 15.46l.012 9.662q.02 15.123.027 30.246.007 17.445.05 34.889.034 13.491.034 26.981 0 8.055.025 16.108.023 7.582.01 15.163-.002 2.775.013 5.55c.077 15.35-1.21 25.71-12.289 37.127-7.454 6.992-15.669 10.173-25.816 10.17l-2.412.011q-4.014.015-8.028.019l-5.746.02c-6.299.021-12.598.031-18.896.041l-6.507.013q-15.288.029-30.575.041-17.64.015-35.278.077-13.638.044-27.275.048c-5.428.002-10.857.011-16.285.036q-7.666.035-15.333.018-2.807 0-5.614.02c-14.74.102-25.262-1.732-36.227-12.339-7.413-7.916-10.243-16.235-10.23-26.93l-.01-2.39q-.01-3.968-.011-7.936l-.015-5.687q-.019-7.73-.024-15.46l-.012-9.662a31066 31066 0 0 1-.027-30.246q-.007-17.445-.05-34.889-.034-13.491-.034-26.981 0-8.055-.025-16.108-.023-7.582-.01-15.163.002-2.775-.013-5.55C-.448 31.8.839 21.44 11.918 10.022 19.358 3.044 27.565-.152 37.696-.14" fill="#265CFE"/>
  <path d="M210.375 110.5c1.047-.03 2.095-.062 3.174-.094 8.413 0 8.413 0 12.111 2.875 2.769 3.217 3.3 4.714 3.508 8.793-.263 3.01-1.216 4.648-3.168 6.926-4.684 3.797-9.434 3.443-15.187 3.5-16.552.167-29.207 6.119-40.81 17.896-6.496 6.91-11.908 14.67-17.404 22.377-6.347 8.84-13.036 17.388-20.599 25.227l-2.223 2.336c-11.58 11.328-27.052 17.546-43.152 18.101-5.54-.128-8.679-.491-12.625-4.437-2.35-3.204-2.546-6.103-2-10 1.825-2.925 3.869-5.434 7-7 2.039-.21 4.078-.417 6.12-.595 14.342-1.278 23.942-5.74 33.88-16.405l1.953-2.043c5.4-5.788 9.981-11.915 14.516-18.375 14.677-20.88 32.566-42.642 58.851-48.176 5.351-.59 10.674-.803 16.055-.906" fill="#96B0FF"/><path d="m188.438 75.813 3.808-.043c5.17.317 9.349.862 13.129 4.543 1.672 2.765 2.464 4.47 2.625 7.687-1.067 3.978-2.712 6.512-6 9-4.29 1.072-8.22.98-12.625.875-15.846-.08-28.132 6.013-39.332 16.945-8.102 8.262-14.816 17.755-21.47 27.187-13.514 19.088-29.686 36.906-53.76 41.305-14.407 1.96-14.407 1.96-20.813-2.312-2.889-2.6-2.999-3.99-3.437-7.937.144-4.088 1.474-6.187 4.437-9.063 2.527-1.264 4.93-1.336 7.713-1.595 7.644-.728 14.43-1.725 21.287-5.405l2.215-1.172c12.955-7.741 21.505-21.627 30.159-33.59 16.227-22.335 33.479-40.305 61.474-45.797 3.56-.498 6.995-.61 10.59-.629" fill="#D4DEFF"/>
  <path d="m167.25 41.75 2.64-.023c5.824.017 10.023.3 14.423 4.46 2.156 3.594 2.204 5.68 1.687 9.813-1.702 3.83-3.157 5.445-7 7-2.191.255-2.191.255-4.562.273l-2.648.054-2.79.048c-17.57.595-30.773 6.93-43 19.625-5.753 6.737-10.934 13.897-16.15 21.052-14.413 19.742-29.326 39.062-54.627 44.51-16.504 2.241-16.504 2.241-22.11-1.476-3.307-3.264-3.307-3.264-4.113-6.086.081-4.466.522-6.436 3.438-9.875 3.886-3.223 6.002-3.246 11-3.437 13.994-.945 24.488-6.907 34.125-16.895C82.763 104.833 87.34 98.384 92 92c6.634-9.038 13.252-17.87 21-26l1.84-2.066c13.449-14.53 32.788-22.361 52.41-22.184" fill="#FDFEFF"/>
</svg>
